<?xml version="1.0" standalone="no"?>
<!DOCTYPE svg PUBLIC "-//W3C//DTD SVG 20010904//EN"
 "http://www.w3.org/TR/2001/REC-SVG-20010904/DTD/svg10.dtd">
<svg version="1.0" xmlns="http://www.w3.org/2000/svg"
 width="195.000000pt" height="195.000000pt" viewBox="0 0 195.000000 195.000000"
 preserveAspectRatio="xMidYMid meet">
<metadata>
Created by potrace 1.11, written by Peter Selinger 2001-2013
</metadata>
<g transform="translate(0.000000,195.000000) scale(0.100000,-0.100000)"
fill="#000000" stroke="none">
<path d="M985 1918 c-5 -16 -23 -312 -19 -316 1 -2 164 -24 361 -48 197 -24
368 -45 381 -48 13 -2 20 0 15 5 -9 9 -723 419 -730 419 -2 0 -5 -6 -8 -12z
m243 -202 c27 -25 61 -50 77 -57 18 -6 25 -13 17 -16 -10 -4 -10 -8 0 -21 11
-13 9 -14 -17 -8 -16 4 -37 13 -45 20 -8 8 -35 16 -59 19 -61 8 -74 22 -59 70
6 20 18 37 25 37 8 0 35 -20 61 -44z"/>
<path d="M1190 1692 c0 -5 7 -13 16 -16 10 -4 14 -1 12 6 -5 15 -28 23 -28 10z"/>
<path d="M915 1906 c-11 -7 -81 -47 -155 -88 -303 -170 -530 -300 -530 -305 0
-2 12 -2 28 1 15 3 160 21 322 41 162 19 309 37 326 40 l31 5 7 133 c4 72 9
144 12 160 6 30 -7 35 -41 13z m-45 -161 c0 -9 -11 -21 -25 -27 -14 -6 -25
-17 -25 -24 0 -32 -126 -85 -166 -70 -17 7 -17 9 11 32 17 13 35 29 40 35 35
35 49 45 83 56 53 17 82 16 82 -2z m-219 -70 c-40 -39 -76 -65 -89 -65 -18 0
-15 6 21 41 39 38 38 41 -13 21 -12 -5 -13 -3 -3 9 7 9 31 22 53 29 23 7 43
17 46 22 3 4 16 8 29 8 20 0 13 -9 -44 -65z"/>
<path d="M775 1720 c-3 -5 1 -10 9 -10 8 0 18 5 21 10 3 6 -1 10 -9 10 -8 0
-18 -4 -21 -10z"/>
<path d="M714 1665 c-19 -14 -19 -14 2 -15 11 0 29 7 40 15 19 14 19 14 -2 15
-11 0 -29 -7 -40 -15z"/>
<path d="M530 1523 c-195 -24 -360 -49 -367 -55 -31 -25 -25 -72 25 -208 28
-74 82 -223 121 -330 39 -107 77 -207 84 -223 12 -27 19 -16 252 384 297 510
280 479 258 478 -10 -1 -178 -21 -373 -46z m-31 -172 c11 -11 22 -41 26 -68
10 -70 10 -71 28 -38 9 17 20 36 25 43 10 14 42 6 42 -11 0 -13 -89 -165 -101
-172 -15 -10 -36 48 -43 115 -7 75 -24 101 -50 75 -18 -18 -21 -41 -6 -50 13
-8 -17 -55 -35 -55 -28 0 -33 65 -10 110 18 35 61 70 86 70 11 0 28 -9 38 -19z"/>
<path d="M981 1562 c9 -24 504 -872 509 -872 3 0 38 82 77 183 40 100 106 269
147 375 42 106 76 199 76 206 0 16 4 16 -405 66 -181 22 -347 43 -369 46 -23
4 -37 2 -35 -4z m424 -132 c17 -11 36 -20 44 -20 14 0 40 -28 41 -43 0 -6
-109 -80 -176 -120 -6 -3 -18 7 -27 23 l-17 29 60 41 60 41 -27 24 c-24 21
-26 26 -13 35 20 13 20 13 55 -10z m161 -210 c9 0 34 -41 34 -55 0 -1 -19 -15
-42 -29 -75 -44 -73 -43 -59 -60 10 -12 9 -17 -9 -26 -16 -9 -21 -8 -26 4 -5
12 -10 13 -26 5 -16 -8 -23 -7 -34 8 -17 23 -17 38 0 52 13 11 10 20 -16 64
-27 46 -28 52 -14 63 13 9 34 8 99 -7 45 -10 87 -19 93 -19z"/>
<path d="M1441 1177 c10 -21 15 -24 30 -16 22 12 25 29 5 29 -8 0 -22 3 -31 6
-14 6 -14 3 -4 -19z"/>
<path d="M686 1110 c-141 -241 -256 -442 -256 -445 0 -3 234 -5 520 -5 l519 0
-51 88 c-28 48 -126 218 -217 377 -223 387 -245 425 -252 425 -3 0 -122 -198
-263 -440z m215 -39 c49 -49 36 -110 -39 -178 l-47 -43 58 0 58 0 -3 -32 -3
-33 -102 -3 c-102 -3 -103 -2 -103 20 0 29 19 58 87 130 39 41 53 64 51 80 -4
31 -49 32 -63 1 -7 -18 -15 -21 -40 -16 -39 7 -37 5 -24 42 23 65 119 83 170
32z m224 13 c13 -8 28 -29 34 -46 16 -44 14 -163 -3 -203 -26 -62 -94 -74
-148 -26 -31 28 -33 33 -36 110 -3 51 1 93 8 112 26 62 93 87 145 53z"/>
<path d="M1050 1021 c-5 -11 -10 -47 -10 -81 0 -65 12 -100 34 -100 20 0 26
23 26 100 0 38 -3 75 -6 84 -8 22 -31 20 -44 -3z"/>
<path d="M1748 1260 c-20 -52 -82 -210 -137 -350 -55 -140 -99 -256 -97 -257
8 -9 242 -113 252 -113 12 0 29 558 22 730 l-3 85 -37 -95z m-19 -287 c20 -70
6 -188 -24 -213 -23 -19 -25 5 -5 43 11 20 20 47 19 59 0 18 -3 15 -13 -12
-22 -59 -41 -45 -41 30 0 111 42 172 64 93z"/>
<path d="M1687 944 c-10 -10 -9 -62 2 -68 11 -7 20 35 11 58 -3 9 -9 14 -13
10z"/>
<path d="M144 1225 c3 -44 9 -209 12 -367 5 -214 10 -288 19 -288 13 0 191 73
200 82 6 5 -221 638 -232 648 -3 3 -3 -31 1 -75z m95 -263 c1 -21 -2 -23 -29
-17 -24 5 -30 3 -30 -11 0 -10 6 -25 14 -33 23 -27 30 -61 12 -61 -18 0 -49
95 -44 137 2 22 8 28 26 27 12 0 22 0 22 1 0 2 -6 21 -14 43 -8 22 -12 43 -8
47 8 8 51 -102 51 -133z m22 -124 c-8 -41 -9 -64 -1 -77 5 -11 10 -27 10 -35
0 -14 -3 -14 -20 -4 -31 19 -34 49 -14 133 14 59 20 72 28 58 6 -11 5 -37 -3
-75z"/>
<path d="M286 582 c-99 -42 -107 -47 -90 -60 18 -13 186 -124 524 -346 74 -49
128 -80 120 -70 -22 27 -356 421 -404 476 l-41 46 -109 -46z m219 -122 c61
-42 94 -90 62 -90 -51 0 -208 115 -192 140 8 13 78 -14 130 -50z m140 -152
c24 -22 3 -25 -35 -3 -36 21 -46 18 -24 -7 24 -27 6 -17 -64 37 -29 21 -52 42
-52 46 0 12 153 -52 175 -73z"/>
<path d="M420 466 c0 -9 110 -59 116 -53 3 3 -10 14 -28 25 -36 22 -88 38 -88
28z"/>
<path d="M607 423 c287 -338 336 -393 343 -393 3 0 38 37 76 82 63 75 336 399
407 484 l28 34 -516 0 -516 0 178 -207z m380 107 c43 -15 58 -52 34 -82 -17
-20 -17 -25 -4 -44 20 -31 3 -60 -45 -75 -47 -14 -117 2 -132 31 -13 24 -13
26 6 45 15 15 15 17 0 34 -56 62 42 125 141 91z"/>
<path d="M899 484 c-11 -14 -10 -18 6 -30 10 -8 22 -14 25 -14 3 0 15 6 25 14
16 12 17 16 6 30 -7 9 -21 16 -31 16 -10 0 -24 -7 -31 -16z"/>
<path d="M904 389 c-8 -13 15 -30 36 -26 8 1 16 10 18 20 3 12 -3 17 -22 17
-14 0 -28 -5 -32 -11z"/>
<path d="M1435 556 c-33 -39 -132 -156 -220 -261 -180 -213 -192 -228 -155
-204 14 9 171 103 350 209 179 106 329 196 334 201 8 7 -143 85 -229 119 -17
7 -30 -4 -80 -64z m106 -88 c-16 -17 -171 -71 -180 -62 -10 10 27 33 78 48 31
9 64 27 79 43 24 26 26 26 33 8 4 -13 1 -26 -10 -37z m-66 -69 c9 -14 -83
-102 -101 -95 -7 3 -33 -6 -56 -19 -24 -14 -49 -25 -55 -25 -50 0 50 98 131
129 60 23 72 25 81 10z"/>
<path d="M1390 338 l-23 -33 31 29 c34 31 37 36 24 36 -5 0 -19 -15 -32 -32z"/>
<path d="M1328 332 c-16 -9 -28 -20 -28 -23 0 -13 38 3 56 22 21 23 8 24 -28
1z"/>
</g>
</svg>
